<svg width="271" height="23" viewBox="0 0 271 23" fill="none" xmlns="http://www.w3.org/2000/svg">
<path d="M2.55054 18V3.78125H6.56421C7.80119 3.78125 8.89494 4.05469 9.84546 4.60156C10.796 5.14844 11.5284 5.92643 12.0427 6.93555C12.5636 7.94466 12.8272 9.10352 12.8337 10.4121V11.3203C12.8337 12.6615 12.5733 13.8366 12.0525 14.8457C11.5382 15.8548 10.7992 16.6296 9.83569 17.1699C8.87866 17.7103 7.76213 17.987 6.48608 18H2.55054ZM4.42554 5.32422V16.4668H6.39819C7.84351 16.4668 8.96655 16.0176 9.76733 15.1191C10.5746 14.2207 10.9783 12.9414 10.9783 11.2812V10.4512C10.9783 8.83659 10.5974 7.58333 9.83569 6.69141C9.08049 5.79297 8.00627 5.33724 6.61304 5.32422H4.42554ZM14.9138 12.6191C14.9138 11.584 15.1156 10.653 15.5193 9.82617C15.9294 8.99935 16.4958 8.36133 17.2185 7.91211C17.9477 7.46289 18.7778 7.23828 19.7087 7.23828C21.1475 7.23828 22.3097 7.73633 23.1951 8.73242C24.087 9.72852 24.533 11.0534 24.533 12.707V12.834C24.533 13.8626 24.3344 14.7871 23.9373 15.6074C23.5466 16.4212 22.9835 17.056 22.2478 17.5117C21.5186 17.9674 20.6788 18.1953 19.7283 18.1953C18.296 18.1953 17.1339 17.6973 16.2419 16.7012C15.3565 15.7051 14.9138 14.3867 14.9138 12.7461V12.6191ZM16.7302 12.834C16.7302 14.0059 17.0004 14.9466 17.5408 15.6562C18.0876 16.3659 18.8168 16.7207 19.7283 16.7207C20.6462 16.7207 21.3754 16.3626 21.9158 15.6465C22.4561 14.9238 22.7263 13.9147 22.7263 12.6191C22.7263 11.4603 22.4496 10.5228 21.8962 9.80664C21.3494 9.08398 20.6202 8.72266 19.7087 8.72266C18.8168 8.72266 18.0974 9.07747 17.5505 9.78711C17.0037 10.4967 16.7302 11.5124 16.7302 12.834ZM31.0369 16.7207C31.6814 16.7207 32.2445 16.5254 32.7263 16.1348C33.2081 15.7441 33.475 15.2559 33.5271 14.6699H35.2361C35.2035 15.2754 34.9952 15.8516 34.6111 16.3984C34.227 16.9453 33.7126 17.3815 33.0681 17.707C32.4301 18.0326 31.753 18.1953 31.0369 18.1953C29.5981 18.1953 28.4522 17.7168 27.5994 16.7598C26.753 15.7962 26.3298 14.4811 26.3298 12.8145V12.5117C26.3298 11.4831 26.5186 10.5684 26.8962 9.76758C27.2738 8.9668 27.8142 8.34505 28.5173 7.90234C29.227 7.45964 30.0636 7.23828 31.0271 7.23828C32.212 7.23828 33.1951 7.5931 33.9763 8.30273C34.7641 9.01237 35.184 9.93359 35.2361 11.0664H33.5271C33.475 10.3828 33.2146 9.82292 32.7458 9.38672C32.2836 8.94401 31.7107 8.72266 31.0271 8.72266C30.1091 8.72266 29.3962 9.05469 28.8884 9.71875C28.3871 10.3763 28.1365 11.3301 28.1365 12.5801V12.9219C28.1365 14.1393 28.3871 15.0768 28.8884 15.7344C29.3897 16.3919 30.1059 16.7207 31.0369 16.7207ZM43.7908 16.9551C43.0876 17.7819 42.0557 18.1953 40.6951 18.1953C39.5688 18.1953 38.7094 17.8698 38.1169 17.2188C37.531 16.5612 37.2348 15.5911 37.2283 14.3086V7.43359H39.0349V14.2598C39.0349 15.8613 39.686 16.6621 40.988 16.6621C42.3682 16.6621 43.2862 16.1478 43.7419 15.1191V7.43359H45.5486V18H43.8298L43.7908 16.9551ZM50.0017 7.43359L50.0505 8.60547C50.8253 7.69401 51.8702 7.23828 53.1853 7.23828C54.6632 7.23828 55.669 7.80469 56.2029 8.9375C56.5544 8.42969 57.0102 8.01953 57.5701 7.70703C58.1365 7.39453 58.8038 7.23828 59.572 7.23828C61.8897 7.23828 63.0681 8.46549 63.1072 10.9199V18H61.3005V11.0273C61.3005 10.2721 61.128 9.70898 60.783 9.33789C60.4379 8.96029 59.8585 8.77148 59.0447 8.77148C58.3741 8.77148 57.8175 8.97331 57.3748 9.37695C56.932 9.77409 56.6749 10.3112 56.6033 10.9883V18H54.7869V11.0762C54.7869 9.53971 54.0349 8.77148 52.531 8.77148C51.3461 8.77148 50.5356 9.27604 50.0994 10.2852V18H48.2927V7.43359H50.0017ZM70.2263 18.1953C68.794 18.1953 67.6287 17.7266 66.7302 16.7891C65.8318 15.8451 65.3826 14.5853 65.3826 13.0098V12.6777C65.3826 11.6296 65.5811 10.6953 65.9783 9.875C66.3819 9.04818 66.9418 8.40365 67.658 7.94141C68.3806 7.47266 69.1619 7.23828 70.0017 7.23828C71.3754 7.23828 72.4431 7.69076 73.2048 8.5957C73.9666 9.50065 74.3474 10.7962 74.3474 12.4824V13.2344H67.1892C67.2153 14.276 67.518 15.1191 68.0974 15.7637C68.6833 16.4017 69.4255 16.7207 70.324 16.7207C70.962 16.7207 71.5024 16.5905 71.9451 16.3301C72.3878 16.0697 72.7751 15.7246 73.1072 15.2949L74.2107 16.1543C73.3253 17.515 71.9972 18.1953 70.2263 18.1953ZM70.0017 8.72266C69.2725 8.72266 68.6606 8.98958 68.1658 9.52344C67.671 10.0508 67.365 10.793 67.2478 11.75H72.5408V11.6133C72.4887 10.6953 72.2413 9.98568 71.7986 9.48438C71.3559 8.97656 70.7569 8.72266 70.0017 8.72266ZM78.156 7.43359L78.2146 8.76172C79.0219 7.74609 80.0766 7.23828 81.3787 7.23828C83.6117 7.23828 84.738 8.49805 84.7576 11.0176V18H82.9509V11.0078C82.9444 10.2461 82.7686 9.68294 82.4236 9.31836C82.085 8.95378 81.5544 8.77148 80.8318 8.77148C80.2458 8.77148 79.7315 8.92773 79.2888 9.24023C78.8461 9.55273 78.5011 9.96289 78.2537 10.4707V18H76.447V7.43359H78.156ZM89.9333 4.875V7.43359H91.906V8.83008H89.9333V15.3828C89.9333 15.806 90.0212 16.125 90.197 16.3398C90.3728 16.5482 90.6723 16.6523 91.0955 16.6523C91.3038 16.6523 91.5903 16.6133 91.9548 16.5352V18C91.4796 18.1302 91.0173 18.1953 90.5681 18.1953C89.7608 18.1953 89.1521 17.9512 88.7419 17.4629C88.3318 16.9746 88.1267 16.2812 88.1267 15.3828V8.83008H86.2029V7.43359H88.1267V4.875H89.9333ZM100.549 18C100.444 17.7917 100.36 17.4206 100.295 16.8867C99.4548 17.7591 98.4522 18.1953 97.2869 18.1953C96.2452 18.1953 95.3891 17.9023 94.7185 17.3164C94.0544 16.724 93.7224 15.9753 93.7224 15.0703C93.7224 13.9701 94.1391 13.1172 94.9724 12.5117C95.8123 11.8997 96.9906 11.5938 98.5076 11.5938H100.265V10.7637C100.265 10.1322 100.077 9.63086 99.699 9.25977C99.3214 8.88216 98.7647 8.69336 98.0291 8.69336C97.3845 8.69336 96.8442 8.85612 96.408 9.18164C95.9718 9.50716 95.7537 9.90104 95.7537 10.3633H93.9373C93.9373 9.83594 94.1228 9.32812 94.4939 8.83984C94.8715 8.34505 95.3793 7.95443 96.0173 7.66797C96.6619 7.38151 97.3682 7.23828 98.1365 7.23828C99.3539 7.23828 100.308 7.54427 100.998 8.15625C101.688 8.76172 102.046 9.59831 102.072 10.666V15.5293C102.072 16.4993 102.196 17.2708 102.443 17.8438V18H100.549ZM97.5505 16.623C98.1169 16.623 98.6541 16.4766 99.1619 16.1836C99.6697 15.8906 100.038 15.5098 100.265 15.041V12.873H98.8494C96.6358 12.873 95.5291 13.5208 95.5291 14.8164C95.5291 15.3828 95.7179 15.8255 96.0955 16.1445C96.4731 16.4635 96.9581 16.623 97.5505 16.623ZM107.355 4.875V7.43359H109.328V8.83008H107.355V15.3828C107.355 15.806 107.443 16.125 107.619 16.3398C107.795 16.5482 108.094 16.6523 108.517 16.6523C108.726 16.6523 109.012 16.6133 109.377 16.5352V18C108.901 18.1302 108.439 18.1953 107.99 18.1953C107.183 18.1953 106.574 17.9512 106.164 17.4629C105.754 16.9746 105.549 16.2812 105.549 15.3828V8.83008H103.625V7.43359H105.549V4.875H107.355ZM113.41 18H111.603V7.43359H113.41V18ZM111.457 4.63086C111.457 4.33789 111.545 4.09049 111.72 3.88867C111.903 3.68685 112.17 3.58594 112.521 3.58594C112.873 3.58594 113.14 3.68685 113.322 3.88867C113.504 4.09049 113.595 4.33789 113.595 4.63086C113.595 4.92383 113.504 5.16797 113.322 5.36328C113.14 5.55859 112.873 5.65625 112.521 5.65625C112.17 5.65625 111.903 5.55859 111.72 5.36328C111.545 5.16797 111.457 4.92383 111.457 4.63086ZM115.832 12.6191C115.832 11.584 116.034 10.653 116.437 9.82617C116.847 8.99935 117.414 8.36133 118.136 7.91211C118.866 7.46289 119.696 7.23828 120.627 7.23828C122.066 7.23828 123.228 7.73633 124.113 8.73242C125.005 9.72852 125.451 11.0534 125.451 12.707V12.834C125.451 13.8626 125.252 14.7871 124.855 15.6074C124.465 16.4212 123.901 17.056 123.166 17.5117C122.437 17.9674 121.597 18.1953 120.646 18.1953C119.214 18.1953 118.052 17.6973 117.16 16.7012C116.274 15.7051 115.832 14.3867 115.832 12.7461V12.6191ZM117.648 12.834C117.648 14.0059 117.918 14.9466 118.459 15.6562C119.006 16.3659 119.735 16.7207 120.646 16.7207C121.564 16.7207 122.293 16.3626 122.834 15.6465C123.374 14.9238 123.644 13.9147 123.644 12.6191C123.644 11.4603 123.368 10.5228 122.814 9.80664C122.267 9.08398 121.538 8.72266 120.627 8.72266C119.735 8.72266 119.015 9.07747 118.469 9.78711C117.922 10.4967 117.648 11.5124 117.648 12.834ZM129.426 7.43359L129.484 8.76172C130.291 7.74609 131.346 7.23828 132.648 7.23828C134.881 7.23828 136.008 8.49805 136.027 11.0176V18H134.22V11.0078C134.214 10.2461 134.038 9.68294 133.693 9.31836C133.355 8.95378 132.824 8.77148 132.101 8.77148C131.515 8.77148 131.001 8.92773 130.558 9.24023C130.116 9.55273 129.771 9.96289 129.523 10.4707V18H127.717V7.43359H129.426ZM144.074 19.2207H142.521L148.459 3.78125H150.002L144.074 19.2207ZM170.187 13.5176L170.461 15.3926L170.861 13.7031L173.674 3.78125H175.256L178 13.7031L178.39 15.4219L178.693 13.5078L180.9 3.78125H182.785L179.338 18H177.629L174.699 7.63867L174.474 6.55469L174.25 7.63867L171.213 18H169.504L166.066 3.78125H167.941L170.187 13.5176ZM186.398 8.71289C187.199 7.72982 188.241 7.23828 189.523 7.23828C191.756 7.23828 192.883 8.49805 192.902 11.0176V18H191.095V11.0078C191.089 10.2461 190.913 9.68294 190.568 9.31836C190.23 8.95378 189.699 8.77148 188.976 8.77148C188.39 8.77148 187.876 8.92773 187.433 9.24023C186.991 9.55273 186.646 9.96289 186.398 10.4707V18H184.592V3H186.398V8.71289ZM195.129 12.6191C195.129 11.584 195.33 10.653 195.734 9.82617C196.144 8.99935 196.711 8.36133 197.433 7.91211C198.163 7.46289 198.993 7.23828 199.924 7.23828C201.362 7.23828 202.524 7.73633 203.41 8.73242C204.302 9.72852 204.748 11.0534 204.748 12.707V12.834C204.748 13.8626 204.549 14.7871 204.152 15.6074C203.761 16.4212 203.198 17.056 202.463 17.5117C201.733 17.9674 200.894 18.1953 199.943 18.1953C198.511 18.1953 197.349 17.6973 196.457 16.7012C195.571 15.7051 195.129 14.3867 195.129 12.7461V12.6191ZM196.945 12.834C196.945 14.0059 197.215 14.9466 197.756 15.6562C198.302 16.3659 199.032 16.7207 199.943 16.7207C200.861 16.7207 201.59 16.3626 202.131 15.6465C202.671 14.9238 202.941 13.9147 202.941 12.6191C202.941 11.4603 202.664 10.5228 202.111 9.80664C201.564 9.08398 200.835 8.72266 199.924 8.72266C199.032 8.72266 198.312 9.07747 197.765 9.78711C197.219 10.4967 196.945 11.5124 196.945 12.834ZM206.789 4.08398L206.584 7.67773H205.324L205.334 3H206.789V4.08398ZM214.552 15.1973C214.552 14.709 214.367 14.3314 213.996 14.0645C213.631 13.791 212.99 13.5566 212.072 13.3613C211.161 13.166 210.435 12.9316 209.894 12.6582C209.36 12.3848 208.963 12.0592 208.703 11.6816C208.449 11.304 208.322 10.8548 208.322 10.334C208.322 9.4681 208.687 8.73568 209.416 8.13672C210.151 7.53776 211.089 7.23828 212.228 7.23828C213.426 7.23828 214.396 7.54753 215.138 8.16602C215.887 8.78451 216.261 9.57552 216.261 10.5391H214.445C214.445 10.0443 214.233 9.61784 213.81 9.25977C213.394 8.90169 212.866 8.72266 212.228 8.72266C211.571 8.72266 211.056 8.86589 210.685 9.15234C210.314 9.4388 210.129 9.81315 210.129 10.2754C210.129 10.7116 210.301 11.0404 210.646 11.2617C210.991 11.4831 211.613 11.6947 212.511 11.8965C213.416 12.0983 214.149 12.3392 214.709 12.6191C215.269 12.8991 215.682 13.2376 215.949 13.6348C216.222 14.0254 216.359 14.5039 216.359 15.0703C216.359 16.0143 215.982 16.7728 215.226 17.3457C214.471 17.9121 213.491 18.1953 212.287 18.1953C211.441 18.1953 210.692 18.0456 210.041 17.7461C209.39 17.4466 208.879 17.0299 208.508 16.4961C208.143 15.9557 207.961 15.373 207.961 14.748H209.767C209.8 15.3535 210.041 15.8353 210.49 16.1934C210.946 16.5449 211.545 16.7207 212.287 16.7207C212.97 16.7207 213.517 16.584 213.927 16.3105C214.344 16.0306 214.552 15.6595 214.552 15.1973ZM230.197 16.9551C229.494 17.7819 228.462 18.1953 227.101 18.1953C225.975 18.1953 225.116 17.8698 224.523 17.2188C223.937 16.5612 223.641 15.5911 223.635 14.3086V7.43359H225.441V14.2598C225.441 15.8613 226.092 16.6621 227.394 16.6621C228.774 16.6621 229.692 16.1478 230.148 15.1191V7.43359H231.955V18H230.236L230.197 16.9551ZM240.861 15.1973C240.861 14.709 240.676 14.3314 240.304 14.0645C239.94 13.791 239.299 13.5566 238.381 13.3613C237.469 13.166 236.743 12.9316 236.203 12.6582C235.669 12.3848 235.272 12.0592 235.011 11.6816C234.758 11.304 234.631 10.8548 234.631 10.334C234.631 9.4681 234.995 8.73568 235.724 8.13672C236.46 7.53776 237.398 7.23828 238.537 7.23828C239.735 7.23828 240.705 7.54753 241.447 8.16602C242.196 8.78451 242.57 9.57552 242.57 10.5391H240.754C240.754 10.0443 240.542 9.61784 240.119 9.25977C239.702 8.90169 239.175 8.72266 238.537 8.72266C237.879 8.72266 237.365 8.86589 236.994 9.15234C236.623 9.4388 236.437 9.81315 236.437 10.2754C236.437 10.7116 236.61 11.0404 236.955 11.2617C237.3 11.4831 237.922 11.6947 238.82 11.8965C239.725 12.0983 240.457 12.3392 241.017 12.6191C241.577 12.8991 241.991 13.2376 242.258 13.6348C242.531 14.0254 242.668 14.5039 242.668 15.0703C242.668 16.0143 242.29 16.7728 241.535 17.3457C240.78 17.9121 239.8 18.1953 238.595 18.1953C237.749 18.1953 237 18.0456 236.349 17.7461C235.698 17.4466 235.187 17.0299 234.816 16.4961C234.452 15.9557 234.269 15.373 234.269 14.748H236.076C236.108 15.3535 236.349 15.8353 236.799 16.1934C237.254 16.5449 237.853 16.7207 238.595 16.7207C239.279 16.7207 239.826 16.584 240.236 16.3105C240.653 16.0306 240.861 15.6595 240.861 15.1973ZM246.984 18H245.177V7.43359H246.984V18ZM245.031 4.63086C245.031 4.33789 245.119 4.09049 245.295 3.88867C245.477 3.68685 245.744 3.58594 246.095 3.58594C246.447 3.58594 246.714 3.68685 246.896 3.88867C247.079 4.09049 247.17 4.33789 247.17 4.63086C247.17 4.92383 247.079 5.16797 246.896 5.36328C246.714 5.55859 246.447 5.65625 246.095 5.65625C245.744 5.65625 245.477 5.55859 245.295 5.36328C245.119 5.16797 245.031 4.92383 245.031 4.63086ZM251.594 7.43359L251.652 8.76172C252.459 7.74609 253.514 7.23828 254.816 7.23828C257.049 7.23828 258.176 8.49805 258.195 11.0176V18H256.388V11.0078C256.382 10.2461 256.206 9.68294 255.861 9.31836C255.523 8.95378 254.992 8.77148 254.269 8.77148C253.683 8.77148 253.169 8.92773 252.726 9.24023C252.284 9.55273 251.939 9.96289 251.691 10.4707V18H249.885V7.43359H251.594ZM260.49 12.6289C260.49 10.9818 260.871 9.67318 261.633 8.70312C262.394 7.72656 263.403 7.23828 264.66 7.23828C265.949 7.23828 266.955 7.69401 267.677 8.60547L267.765 7.43359H269.416V17.7461C269.416 19.1133 269.009 20.1908 268.195 20.9785C267.388 21.7663 266.301 22.1602 264.933 22.1602C264.172 22.1602 263.426 21.9974 262.697 21.6719C261.968 21.3464 261.411 20.9004 261.027 20.334L261.965 19.25C262.739 20.207 263.687 20.6855 264.806 20.6855C265.685 20.6855 266.369 20.4382 266.857 19.9434C267.352 19.4486 267.599 18.752 267.599 17.8535V16.9453C266.877 17.7786 265.89 18.1953 264.64 18.1953C263.403 18.1953 262.401 17.6973 261.633 16.7012C260.871 15.7051 260.49 14.3477 260.49 12.6289ZM262.306 12.834C262.306 14.0254 262.551 14.9629 263.039 15.6465C263.527 16.3236 264.211 16.6621 265.09 16.6621C266.229 16.6621 267.066 16.1445 267.599 15.1094V10.2852C267.046 9.27604 266.216 8.77148 265.109 8.77148C264.23 8.77148 263.543 9.11328 263.049 9.79688C262.554 10.4805 262.306 11.4928 262.306 12.834Z" fill="black"/>
</svg>
