<svg width="60" height="20" viewBox="0 0 60 20" fill="none" xmlns="http://www.w3.org/2000/svg">
<rect width="60" height="20" fill="#F16A50"/>
<path d="M6.75313 14V7H7.75313V14H6.75313ZM9.84883 14V7H10.6688L15.2988 12.75H14.8688V7H15.8688V14H15.0488L10.4188 8.25H10.8488V14H9.84883ZM22.6896 14.08C22.1563 14.08 21.6463 14 21.1596 13.84C20.6729 13.6733 20.2896 13.46 20.0096 13.2L20.3796 12.42C20.6463 12.6533 20.9863 12.8467 21.3996 13C21.8129 13.1533 22.2429 13.23 22.6896 13.23C23.0963 13.23 23.4263 13.1833 23.6796 13.09C23.9329 12.9967 24.1196 12.87 24.2396 12.71C24.3596 12.5433 24.4196 12.3567 24.4196 12.15C24.4196 11.91 24.3396 11.7167 24.1796 11.57C24.0263 11.4233 23.8229 11.3067 23.5696 11.22C23.3229 11.1267 23.0496 11.0467 22.7496 10.98C22.4496 10.9133 22.1463 10.8367 21.8396 10.75C21.5396 10.6567 21.2629 10.54 21.0096 10.4C20.7629 10.26 20.5629 10.0733 20.4096 9.84C20.2563 9.6 20.1796 9.29333 20.1796 8.92C20.1796 8.56 20.2729 8.23 20.4596 7.93C20.6529 7.62333 20.9463 7.38 21.3396 7.2C21.7396 7.01333 22.2463 6.92 22.8596 6.92C23.2663 6.92 23.6696 6.97333 24.0696 7.08C24.4696 7.18667 24.8163 7.34 25.1096 7.54L24.7796 8.34C24.4796 8.14 24.1629 7.99667 23.8296 7.91C23.4963 7.81667 23.1729 7.77 22.8596 7.77C22.4663 7.77 22.1429 7.82 21.8896 7.92C21.6363 8.02 21.4496 8.15333 21.3296 8.32C21.2163 8.48667 21.1596 8.67333 21.1596 8.88C21.1596 9.12667 21.2363 9.32333 21.3896 9.47C21.5496 9.61667 21.7529 9.73333 21.9996 9.82C22.2529 9.90667 22.5296 9.98667 22.8296 10.06C23.1296 10.1267 23.4296 10.2033 23.7296 10.29C24.0363 10.3767 24.3129 10.49 24.5596 10.63C24.8129 10.77 25.0163 10.9567 25.1696 11.19C25.3229 11.4233 25.3996 11.7233 25.3996 12.09C25.3996 12.4433 25.3029 12.7733 25.1096 13.08C24.9163 13.38 24.6163 13.6233 24.2096 13.81C23.8096 13.99 23.3029 14.08 22.6896 14.08ZM28.1529 14V7.87H25.7529V7H31.5429V7.87H29.1429V14H28.1529ZM35.6944 14.08C35.161 14.08 34.6644 13.99 34.2044 13.81C33.751 13.63 33.3577 13.38 33.0244 13.06C32.691 12.7333 32.431 12.3533 32.2444 11.92C32.0577 11.4867 31.9644 11.0133 31.9644 10.5C31.9644 9.98667 32.0577 9.51333 32.2444 9.08C32.431 8.64667 32.691 8.27 33.0244 7.95C33.3577 7.62333 33.751 7.37 34.2044 7.19C34.6577 7.01 35.1544 6.92 35.6944 6.92C36.2277 6.92 36.7177 7.01 37.1644 7.19C37.6177 7.36333 38.011 7.61333 38.3444 7.94C38.6844 8.26 38.9444 8.63667 39.1244 9.07C39.311 9.50333 39.4044 9.98 39.4044 10.5C39.4044 11.02 39.311 11.4967 39.1244 11.93C38.9444 12.3633 38.6844 12.7433 38.3444 13.07C38.011 13.39 37.6177 13.64 37.1644 13.82C36.7177 13.9933 36.2277 14.08 35.6944 14.08ZM35.6944 13.19C36.081 13.19 36.4377 13.1233 36.7644 12.99C37.0977 12.8567 37.3844 12.67 37.6244 12.43C37.871 12.1833 38.061 11.8967 38.1944 11.57C38.3344 11.2433 38.4044 10.8867 38.4044 10.5C38.4044 10.1133 38.3344 9.75667 38.1944 9.43C38.061 9.10333 37.871 8.82 37.6244 8.58C37.3844 8.33333 37.0977 8.14333 36.7644 8.01C36.4377 7.87667 36.081 7.81 35.6944 7.81C35.301 7.81 34.9377 7.87667 34.6044 8.01C34.2777 8.14333 33.991 8.33333 33.7444 8.58C33.4977 8.82 33.3044 9.10333 33.1644 9.43C33.031 9.75667 32.9644 10.1133 32.9644 10.5C32.9644 10.8867 33.031 11.2433 33.1644 11.57C33.3044 11.8967 33.4977 12.1833 33.7444 12.43C33.991 12.67 34.2777 12.8567 34.6044 12.99C34.9377 13.1233 35.301 13.19 35.6944 13.19ZM44.0628 14.08C43.5295 14.08 43.0361 13.9933 42.5828 13.82C42.1361 13.64 41.7461 13.39 41.4128 13.07C41.0861 12.7433 40.8295 12.3633 40.6428 11.93C40.4561 11.4967 40.3628 11.02 40.3628 10.5C40.3628 9.98 40.4561 9.50333 40.6428 9.07C40.8295 8.63667 41.0895 8.26 41.4228 7.94C41.7561 7.61333 42.1461 7.36333 42.5928 7.19C43.0461 7.01 43.5395 6.92 44.0728 6.92C44.6128 6.92 45.1095 7.01333 45.5628 7.2C46.0228 7.38 46.4128 7.65 46.7328 8.01L46.0828 8.64C45.8161 8.36 45.5161 8.15333 45.1828 8.02C44.8495 7.88 44.4928 7.81 44.1128 7.81C43.7195 7.81 43.3528 7.87667 43.0128 8.01C42.6795 8.14333 42.3895 8.33 42.1428 8.57C41.8961 8.81 41.7028 9.09667 41.5628 9.43C41.4295 9.75667 41.3628 10.1133 41.3628 10.5C41.3628 10.8867 41.4295 11.2467 41.5628 11.58C41.7028 11.9067 41.8961 12.19 42.1428 12.43C42.3895 12.67 42.6795 12.8567 43.0128 12.99C43.3528 13.1233 43.7195 13.19 44.1128 13.19C44.4928 13.19 44.8495 13.1233 45.1828 12.99C45.5161 12.85 45.8161 12.6367 46.0828 12.35L46.7328 12.98C46.4128 13.34 46.0228 13.6133 45.5628 13.8C45.1095 13.9867 44.6095 14.08 44.0628 14.08ZM49.0394 12.31L48.9894 11.09L52.9594 7H54.0994L51.0294 10.24L50.4694 10.86L49.0394 12.31ZM48.1594 14V7H49.1594V14H48.1594ZM53.1194 14L50.2494 10.66L50.9194 9.92L54.2894 14H53.1194Z" fill="#F8F1EA"/>
</svg>
