<svg width="60" height="20" viewBox="0 0 60 20" fill="none" xmlns="http://www.w3.org/2000/svg">
<rect width="60" height="20" fill="#F8F1EA"/>
<path d="M18.6857 14.08C18.1524 14.08 17.6424 14 17.1557 13.84C16.669 13.6733 16.2857 13.46 16.0057 13.2L16.3757 12.42C16.6424 12.6533 16.9824 12.8467 17.3957 13C17.809 13.1533 18.239 13.23 18.6857 13.23C19.0924 13.23 19.4224 13.1833 19.6757 13.09C19.929 12.9967 20.1157 12.87 20.2357 12.71C20.3557 12.5433 20.4157 12.3567 20.4157 12.15C20.4157 11.91 20.3357 11.7167 20.1757 11.57C20.0224 11.4233 19.819 11.3067 19.5657 11.22C19.319 11.1267 19.0457 11.0467 18.7457 10.98C18.4457 10.9133 18.1424 10.8367 17.8357 10.75C17.5357 10.6567 17.259 10.54 17.0057 10.4C16.759 10.26 16.559 10.0733 16.4057 9.84C16.2524 9.6 16.1757 9.29333 16.1757 8.92C16.1757 8.56 16.269 8.23 16.4557 7.93C16.649 7.62333 16.9424 7.38 17.3357 7.2C17.7357 7.01333 18.2424 6.92 18.8557 6.92C19.2624 6.92 19.6657 6.97333 20.0657 7.08C20.4657 7.18667 20.8124 7.34 21.1057 7.54L20.7757 8.34C20.4757 8.14 20.159 7.99667 19.8257 7.91C19.4924 7.81667 19.169 7.77 18.8557 7.77C18.4624 7.77 18.139 7.82 17.8857 7.92C17.6324 8.02 17.4457 8.15333 17.3257 8.32C17.2124 8.48667 17.1557 8.67333 17.1557 8.88C17.1557 9.12667 17.2324 9.32333 17.3857 9.47C17.5457 9.61667 17.749 9.73333 17.9957 9.82C18.249 9.90667 18.5257 9.98667 18.8257 10.06C19.1257 10.1267 19.4257 10.2033 19.7257 10.29C20.0324 10.3767 20.309 10.49 20.5557 10.63C20.809 10.77 21.0124 10.9567 21.1657 11.19C21.319 11.4233 21.3957 11.7233 21.3957 12.09C21.3957 12.4433 21.299 12.7733 21.1057 13.08C20.9124 13.38 20.6124 13.6233 20.2057 13.81C19.8057 13.99 19.299 14.08 18.6857 14.08ZM26.0166 14.08C25.4833 14.08 24.9866 13.99 24.5266 13.81C24.0733 13.63 23.68 13.38 23.3466 13.06C23.0133 12.7333 22.7533 12.3533 22.5666 11.92C22.38 11.4867 22.2866 11.0133 22.2866 10.5C22.2866 9.98667 22.38 9.51333 22.5666 9.08C22.7533 8.64667 23.0133 8.27 23.3466 7.95C23.68 7.62333 24.0733 7.37 24.5266 7.19C24.98 7.01 25.4766 6.92 26.0166 6.92C26.55 6.92 27.04 7.01 27.4866 7.19C27.94 7.36333 28.3333 7.61333 28.6666 7.94C29.0066 8.26 29.2666 8.63667 29.4466 9.07C29.6333 9.50333 29.7266 9.98 29.7266 10.5C29.7266 11.02 29.6333 11.4967 29.4466 11.93C29.2666 12.3633 29.0066 12.7433 28.6666 13.07C28.3333 13.39 27.94 13.64 27.4866 13.82C27.04 13.9933 26.55 14.08 26.0166 14.08ZM26.0166 13.19C26.4033 13.19 26.76 13.1233 27.0866 12.99C27.42 12.8567 27.7066 12.67 27.9466 12.43C28.1933 12.1833 28.3833 11.8967 28.5166 11.57C28.6566 11.2433 28.7266 10.8867 28.7266 10.5C28.7266 10.1133 28.6566 9.75667 28.5166 9.43C28.3833 9.10333 28.1933 8.82 27.9466 8.58C27.7066 8.33333 27.42 8.14333 27.0866 8.01C26.76 7.87667 26.4033 7.81 26.0166 7.81C25.6233 7.81 25.26 7.87667 24.9266 8.01C24.6 8.14333 24.3133 8.33333 24.0666 8.58C23.82 8.82 23.6266 9.10333 23.4866 9.43C23.3533 9.75667 23.2866 10.1133 23.2866 10.5C23.2866 10.8867 23.3533 11.2433 23.4866 11.57C23.6266 11.8967 23.82 12.1833 24.0666 12.43C24.3133 12.67 24.6 12.8567 24.9266 12.99C25.26 13.1233 25.6233 13.19 26.0166 13.19ZM31.2551 14V7H32.2551V13.13H36.0451V14H31.2551ZM37.1926 14V7H40.1426C40.8892 7 41.5459 7.14667 42.1126 7.44C42.6859 7.73333 43.1292 8.14333 43.4426 8.67C43.7626 9.19667 43.9226 9.80667 43.9226 10.5C43.9226 11.1933 43.7626 11.8033 43.4426 12.33C43.1292 12.8567 42.6859 13.2667 42.1126 13.56C41.5459 13.8533 40.8892 14 40.1426 14H37.1926ZM38.1926 13.13H40.0826C40.6626 13.13 41.1626 13.02 41.5826 12.8C42.0092 12.58 42.3392 12.2733 42.5726 11.88C42.8059 11.48 42.9226 11.02 42.9226 10.5C42.9226 9.97333 42.8059 9.51333 42.5726 9.12C42.3392 8.72667 42.0092 8.42 41.5826 8.2C41.1626 7.98 40.6626 7.87 40.0826 7.87H38.1926V13.13Z" fill="black"/>
</svg>
