<svg width="34" height="34" viewBox="0 0 34 34" fill="none" xmlns="http://www.w3.org/2000/svg">
<path d="M33.0268 15.9342C33.7952 17.1791 32.8738 18.7427 31.3379 18.7981C25.7296 19.0035 20.0113 20.3138 14.62 22.8936L12.8374 23.856C12.8374 23.8636 12.8128 23.8166 17.1526 30.8776C17.5508 31.5237 17.3145 32.349 16.6246 32.7222L15.2185 33.4815C14.5287 33.854 13.6458 33.6329 13.2476 32.9868L8.91868 25.9727L8.21603 26.3527C6.83556 27.0977 5.07051 26.6555 4.27332 25.3641L1.02685 20.1038C0.230453 18.8124 0.703162 17.1612 2.08363 16.4154L8.48763 12.9563C13.3818 9.99457 17.529 6.07301 20.6379 1.45993C21.4575 0.243435 23.3651 0.278663 24.1335 1.52364L26.9113 6.02534C28.5073 5.16337 30.5487 5.6753 31.4701 7.16838C32.3915 8.66145 31.8443 10.5705 30.2483 11.4325L33.0268 15.9342Z" fill="#D1E7FF"/>
</svg>
